<svg width="16" height="18" viewBox="0 0 16 18" fill="none" xmlns="http://www.w3.org/2000/svg">
    <path fill-rule="evenodd" clip-rule="evenodd" d="M13.5899 6.3303C13.5899 7.37691 13.8665 7.99379 14.4752 8.70468C14.9365 9.22841 15.084 9.90069 15.084 10.63C15.084 11.3586 14.8446 12.0501 14.3651 12.6116C13.7373 13.2848 12.8519 13.7145 11.9483 13.7892C10.6389 13.9008 9.32868 13.9948 8.00104 13.9948C6.67258 13.9948 5.36317 13.9386 4.05376 13.7892C3.14934 13.7145 2.26398 13.2848 1.63702 12.6116C1.15748 12.0501 0.917297 11.3586 0.917297 10.63C0.917297 9.90069 1.06555 9.22841 1.52604 8.70468C2.15383 7.99379 2.41223 7.37691 2.41223 6.3303V5.97527C2.41223 4.57364 2.76174 3.65712 3.48146 2.75991C4.55152 1.45143 6.26676 0.666687 7.96377 0.666687H8.03831C9.77177 0.666687 11.5425 1.4892 12.5943 2.85391C13.2768 3.73266 13.5899 4.61057 13.5899 5.97527V6.3303ZM5.56201 15.7174C5.56201 15.2977 5.94713 15.1055 6.30327 15.0233C6.71986 14.9352 9.25835 14.9352 9.67494 15.0233C10.0311 15.1055 10.4162 15.2977 10.4162 15.7174C10.3955 16.1169 10.1611 16.4711 9.83727 16.696C9.41737 17.0234 8.92458 17.2307 8.40943 17.3054C8.12452 17.3423 7.84458 17.3431 7.56961 17.3054C7.05363 17.2307 6.56084 17.0234 6.14177 16.6952C5.8171 16.4711 5.58272 16.1169 5.56201 15.7174Z" fill="#808191"/>
</svg>
