<svg width="48" height="48" viewBox="0 0 48 48" fill="none" xmlns="http://www.w3.org/2000/svg">
<path d="M23 27.5V27H22.5H11.25C10.7859 27 10.3408 26.8156 10.0126 26.4874C9.68437 26.1592 9.5 25.7141 9.5 25.25V10.25C9.5 9.78587 9.68437 9.34075 10.0126 9.01256C10.3408 8.68437 10.7859 8.5 11.25 8.5H36.25H36.75C37.2141 8.5 37.6592 8.68437 37.9874 9.01256C38.3156 9.34075 38.5 9.78587 38.5 10.25V25.25C38.5 25.7141 38.3156 26.1592 37.9874 26.4874C37.6592 26.8156 37.2141 27 36.75 27H25.5H25V27.5V29V29.5H25.5H33.75C33.8163 29.5 33.8799 29.5263 33.9268 29.5732C33.9737 29.6201 34 29.6837 34 29.75V31.25C34 31.3163 33.9737 31.3799 33.9268 31.4268C33.8799 31.4737 33.8163 31.5 33.75 31.5H14.25C14.1837 31.5 14.1201 31.4737 14.0732 31.4268C14.0263 31.3799 14 31.3163 14 31.25V29.75C14 29.6837 14.0263 29.6201 14.0732 29.5732C14.1201 29.5263 14.1837 29.5 14.25 29.5H22.5H23V29V27.5ZM36.5 25V24.5V11V10.5H36H12H11.5V11V24.5V25H12H36H36.5Z" fill="#488697" stroke="#488697"/>
<g opacity="0.1" filter="url(#filter0_d_335_113)">
<rect x="4" width="40" height="40" rx="12" fill="black"/>
<rect x="4.5" y="0.5" width="39" height="39" rx="11.5" stroke="black"/>
</g>
<defs>
<filter id="filter0_d_335_113" x="0" y="0" width="48" height="48" filterUnits="userSpaceOnUse" color-interpolation-filters="sRGB">
<feFlood flood-opacity="0" result="BackgroundImageFix"/>
<feColorMatrix in="SourceAlpha" type="matrix" values="0 0 0 0 0 0 0 0 0 0 0 0 0 0 0 0 0 0 127 0" result="hardAlpha"/>
<feOffset dy="4"/>
<feGaussianBlur stdDeviation="2"/>
<feComposite in2="hardAlpha" operator="out"/>
<feColorMatrix type="matrix" values="0 0 0 0 0 0 0 0 0 0 0 0 0 0 0 0 0 0 0.25 0"/>
<feBlend mode="normal" in2="BackgroundImageFix" result="effect1_dropShadow_335_113"/>
<feBlend mode="normal" in="SourceGraphic" in2="effect1_dropShadow_335_113" result="shape"/>
</filter>
</defs>
</svg>
