<svg width="48" height="48" viewBox="0 0 48 48" fill="none" xmlns="http://www.w3.org/2000/svg">
<g opacity="0.1" filter="url(#filter0_d_335_108)">
<rect x="4" width="40" height="40" rx="12" fill="black"/>
<rect x="4.5" y="0.5" width="39" height="39" rx="11.5" stroke="black"/>
</g>
<g clip-path="url(#clip0_335_108)">
<path d="M24 5C15.7156 5 9 11.7156 9 20C9 28.2844 15.7156 35 24 35C32.2847 35 39 28.2844 39 20C39 11.7156 32.2847 5 24 5ZM24 31.8454C17.4683 31.8454 12.1546 26.5314 12.1546 20C12.1546 13.4686 17.4683 8.15464 24 8.15464C30.5317 8.15464 35.8454 13.4686 35.8454 20C35.8454 26.5314 30.5317 31.8454 24 31.8454Z" fill="#488697"/>
<path d="M33.5003 14.4358C33.4214 14.3008 33.2621 14.2362 33.112 14.2772L22.4546 17.1835C22.396 17.1999 22.3427 17.2312 22.2994 17.2744L14.5507 25.1471C14.4415 25.2588 14.4201 25.4294 14.499 25.5635C14.5778 25.6985 14.7371 25.7638 14.8876 25.7225L25.5449 22.8158C25.5743 22.8083 25.6023 22.7963 25.6285 22.7811C25.6547 22.7657 25.6787 22.7471 25.7005 22.725L33.4489 14.8519C33.558 14.7412 33.5792 14.5702 33.5003 14.4358ZM17.4243 23.8509L22.6168 18.5747L24.566 21.9032L17.4243 23.8509Z" fill="#488697"/>
</g>
<defs>
<filter id="filter0_d_335_108" x="0" y="0" width="48" height="48" filterUnits="userSpaceOnUse" color-interpolation-filters="sRGB">
<feFlood flood-opacity="0" result="BackgroundImageFix"/>
<feColorMatrix in="SourceAlpha" type="matrix" values="0 0 0 0 0 0 0 0 0 0 0 0 0 0 0 0 0 0 127 0" result="hardAlpha"/>
<feOffset dy="4"/>
<feGaussianBlur stdDeviation="2"/>
<feComposite in2="hardAlpha" operator="out"/>
<feColorMatrix type="matrix" values="0 0 0 0 0 0 0 0 0 0 0 0 0 0 0 0 0 0 0.25 0"/>
<feBlend mode="normal" in2="BackgroundImageFix" result="effect1_dropShadow_335_108"/>
<feBlend mode="normal" in="SourceGraphic" in2="effect1_dropShadow_335_108" result="shape"/>
</filter>
<clipPath id="clip0_335_108">
<rect width="30" height="30" fill="white" transform="translate(9 5)"/>
</clipPath>
</defs>
</svg>
