<svg width="48" height="48" viewBox="0 0 48 48" fill="none" xmlns="http://www.w3.org/2000/svg">
<g opacity="0.1" filter="url(#filter0_d_335_114)">
<rect x="4" width="40" height="40" rx="12" fill="black"/>
<rect x="4.5" y="0.5" width="39" height="39" rx="11.5" stroke="black"/>
</g>
<path d="M38.998 24.5217L39 22.1046C39 22.0801 38.9976 22.0562 38.9964 22.0319L38.9951 20.1034C38.9951 16.5193 36.0793 13.6034 32.4951 13.6034C32.4937 13.6034 32.4926 13.6036 32.4912 13.6036H28.0584L29.6133 10.514C29.9242 9.8937 30.0885 9.1973 30.0885 8.5C30.0885 6.0187 28.0697 4 25.5885 4C23.8729 4 22.3301 4.9535 21.5621 6.4887L17.9205 13.7714C17.7144 13.6649 17.481 13.6036 17.233 13.6036H10.5C9.6716 13.6036 9 14.2752 9 15.1036V33.1034C9 33.9318 9.6716 34.6034 10.5 34.6034H17.233C18.0614 34.6034 18.733 33.9318 18.733 33.1034V32.8912C20.417 34.0002 22.4023 34.6034 24.4951 34.6034H32.4951C36.0793 34.6034 38.9951 31.6875 38.9951 28.1046L38.9955 27.592C38.9973 27.5622 39 27.5326 39 27.5025L38.998 24.5217ZM15.733 31.6034H12V16.6036H15.733V31.6034ZM32.4951 31.6034H24.4951C22.2422 31.6034 20.1638 30.6243 18.733 28.9045V18.8542L24.2451 7.8308C24.5015 7.3185 25.0162 7.0001 25.5885 7.0001C26.4156 7.0001 27.0885 7.673 27.0885 8.5001C27.0885 8.7363 27.0356 8.9616 26.9324 9.1676L24.2844 14.4293C24.0504 14.8943 24.0741 15.4474 24.3473 15.8905C24.6203 16.3337 25.1037 16.6036 25.6243 16.6036H32.4952C32.4961 16.6036 32.497 16.6035 32.4977 16.6035C34.4264 16.6049 35.9952 18.1744 35.9952 20.1044L35.9981 24.5214L35.9952 28.1034C35.9951 30.0333 34.425 31.6034 32.4951 31.6034Z" fill="#488697"/>
<defs>
<filter id="filter0_d_335_114" x="0" y="0" width="48" height="48" filterUnits="userSpaceOnUse" color-interpolation-filters="sRGB">
<feFlood flood-opacity="0" result="BackgroundImageFix"/>
<feColorMatrix in="SourceAlpha" type="matrix" values="0 0 0 0 0 0 0 0 0 0 0 0 0 0 0 0 0 0 127 0" result="hardAlpha"/>
<feOffset dy="4"/>
<feGaussianBlur stdDeviation="2"/>
<feComposite in2="hardAlpha" operator="out"/>
<feColorMatrix type="matrix" values="0 0 0 0 0 0 0 0 0 0 0 0 0 0 0 0 0 0 0.25 0"/>
<feBlend mode="normal" in2="BackgroundImageFix" result="effect1_dropShadow_335_114"/>
<feBlend mode="normal" in="SourceGraphic" in2="effect1_dropShadow_335_114" result="shape"/>
</filter>
</defs>
</svg>
