<svg width="30" height="31" viewBox="0 0 30 31" fill="none" xmlns="http://www.w3.org/2000/svg">
<rect x="9" y="12" width="19" height="16" fill="#488697"/>
<rect x="16.0679" y="0.9104" width="4.90815" height="12.5383" transform="rotate(26.0006 16.0679 0.9104)" fill="#488697"/>
<path d="M29.998 20.5217L30 18.1046C30 18.0801 29.9976 18.0562 29.9964 18.0319L29.9951 16.1034C29.9951 12.5193 27.0793 9.6034 23.4951 9.6034C23.4937 9.6034 23.4926 9.6036 23.4912 9.6036H19.0584L20.6133 6.514C20.9242 5.8937 21.0885 5.1973 21.0885 4.5C21.0885 2.0187 19.0697 0 16.5885 0C14.8729 0 13.3301 0.9535 12.5621 2.4887L8.9205 9.7714C8.7144 9.6649 8.481 9.6036 8.233 9.6036H1.5C0.6716 9.6036 0 10.2752 0 11.1036V29.1034C0 29.9318 0.6716 30.6034 1.5 30.6034H8.233C9.0614 30.6034 9.733 29.9318 9.733 29.1034V28.8912C11.417 30.0002 13.4023 30.6034 15.4951 30.6034H23.4951C27.0793 30.6034 29.9951 27.6875 29.9951 24.1046L29.9955 23.592C29.9973 23.5622 30 23.5326 30 23.5025L29.998 20.5217ZM6.733 27.6034H3V12.6036H6.733V27.6034ZM23.4951 27.6034H15.4951C13.2422 27.6034 11.1638 26.6243 9.733 24.9045V14.8542L15.2451 3.8308C15.5015 3.3185 16.0162 3.0001 16.5885 3.0001C17.4156 3.0001 18.0885 3.673 18.0885 4.5001C18.0885 4.7363 18.0356 4.9616 17.9324 5.1676L15.2844 10.4293C15.0504 10.8943 15.0741 11.4474 15.3473 11.8905C15.6203 12.3337 16.1037 12.6036 16.6243 12.6036H23.4952C23.4961 12.6036 23.497 12.6035 23.4977 12.6035C25.4264 12.6049 26.9952 14.1744 26.9952 16.1044L26.9981 20.5214L26.9952 24.1034C26.9951 26.0333 25.425 27.6034 23.4951 27.6034Z" fill="#488697"/>
</svg>
